<svg id="epzOSNC2qyL1" xmlns="http://www.w3.org/2000/svg" xmlns:xlink="http://www.w3.org/1999/xlink" viewBox="0 0 10 10" shape-rendering="geometricPrecision" text-rendering="geometricPrecision" project-id="d48a8dfbd1434ffa89357f2648c1e0b1" export-id="9be070e49ca64a5295fcc92892bf8d9a" cached="false"><path d="M0,5C0,2.23858,2.23858,0,5,0s5,2.23858,5,5-2.23858,5-5,5-5-2.23858-5-5ZM5.5,1.3696C5.5,0.88933,5.27614,0.5,5,0.5s-.5.38933-.5.8696v3.1304h-3.22957C0.84493,4.5,0.5,4.72386,0.5,5s.34493.5.77043.5L4.5,5.5v3.1304c0,.48027.22386.8696.5.8696s.5-.38933.5-.8696L5.5,5.5h3.22957C9.15507,5.5,9.5,5.27614,9.5,5s-.34493-.5-.77043-.5L5.5,4.5v-3.1304Z" fill-rule="evenodd" stroke-width="0"/><path d="M4.99968,0.5C4.72369,0.5003,4.5,0.88952,4.5,1.3696v3.1304h-3.22957c-.42522,0-.76999.22357-.77043.49947C0.50029,2.51454,2.51472,0.50017,4.99968,0.5ZM4.5,8.6304c0,.48027.22386.8696.5.8696-2.48511,0-4.49971-2.01443-4.5-4.49947.00044.2759.3452.49947.77043.49947L4.5,5.5v3.1304ZM9.5,5C9.5,7.48528,7.48528,9.5,5,9.5c.27614,0,.5-.38933.5-.8696L5.5,5.5h3.22957C9.15507,5.5,9.5,5.27614,9.5,5s-.34493-.5-.77043-.5L5.5,4.5v-3.1304c0-.48008-.22368-.8693-.49968-.8696C7.48545,0.50017,9.5,2.51483,9.5,5Z" fill="#dc1f1f" fill-rule="evenodd" stroke-width="0"/></svg>
