<svg id="eWacdSHC5l41" xmlns="http://www.w3.org/2000/svg" xmlns:xlink="http://www.w3.org/1999/xlink" viewBox="0 0 15 15" shape-rendering="geometricPrecision" text-rendering="geometricPrecision" project-id="d48a8dfbd1434ffa89357f2648c1e0b1" export-id="ffb3fee3bb884ce598f0bc9af758b5fe" cached="false"><rect width="1" height="1" rx="0" ry="0" transform="matrix(3 0 0 3 10 10)" fill="#f00" stroke-width="0"/><rect width="1" height="1" rx="0" ry="0" transform="matrix(3 0 0 3 2 10)" fill="#f00" stroke-width="0"/><rect width="1" height="1" rx="0" ry="0" transform="matrix(3 0 0 3 10 2)" fill="#f00" stroke-width="0"/><rect width="5" height="1" rx="0" ry="0" transform="translate(5 14)" stroke-width="0"/><rect width="5" height="1" rx="0" ry="0" transform="translate(5 0)" stroke-width="0"/><rect width="5" height="1" rx="0" ry="0" transform="matrix(0 1-1 0 15 5)" stroke-width="0"/><rect width="5" height="1" rx="0" ry="0" transform="matrix(0 1-1 0 1 5)" stroke-width="0"/><rect width="1" height="5" rx="0" ry="0" transform="translate(5 9)" stroke-width="0"/><rect width="1" height="4" rx="0" ry="0" transform="translate(9 10)" stroke-width="0"/><rect width="1" height="4" rx="0" ry="0" transform="translate(5 1)" stroke-width="0"/><rect width="1" height="4" rx="0" ry="0" transform="matrix(0 1-1 0 5 9)" stroke-width="0"/><rect width="1" height="4" rx="0" ry="0" transform="matrix(0 1-1 0 14 5)" stroke-width="0"/><rect width="1" height="5" rx="0" ry="0" transform="translate(9 1)" stroke-width="0"/><rect width="1" height="5" rx="0" ry="0" transform="matrix(0 1-1 0 14 9)" stroke-width="0"/><rect width="1" height="5" rx="0" ry="0" transform="matrix(0 1-1 0 6 5)" stroke-width="0"/><rect width="1" height="2" rx="0" ry="0" transform="translate(1 10)" stroke-width="0"/><rect width="1" height="2" rx="0" ry="0" transform="translate(13 10)" stroke-width="0"/><rect width="1" height="2" rx="0" ry="0" transform="translate(13 3)" stroke-width="0"/><rect width="1" height="2" rx="0" ry="0" transform="translate(1 3)" stroke-width="0"/><rect width="1" height="2" rx="0" ry="0" transform="matrix(0 1-1 0 5 13)" stroke-width="0"/><rect width="1" height="2" rx="0" ry="0" transform="matrix(0 1-1 0 12 13)" stroke-width="0"/><rect width="1" height="2" rx="0" ry="0" transform="matrix(0 1-1 0 12 1)" stroke-width="0"/><rect width="1" height="2" rx="0" ry="0" transform="matrix(0 1-1 0 5 1)" stroke-width="0"/><rect width="1" height="1" rx="0" ry="0" transform="translate(2 12)" stroke-width="0"/><rect width="1" height="1" rx="0" ry="0" transform="translate(12 12)" stroke-width="0"/><rect width="1" height="1" rx="0" ry="0" transform="translate(12 2)" stroke-width="0"/><rect width="1" height="1" rx="0" ry="0" transform="matrix(3 0 0 3 2 2)" fill="#f00" stroke-width="0"/><rect width="1" height="1" rx="0" ry="0" transform="translate(2 2)" stroke-width="0"/></svg>
