<svg id="ej1Frql2ofM1" xmlns="http://www.w3.org/2000/svg" xmlns:xlink="http://www.w3.org/1999/xlink" viewBox="0 0 300 300" shape-rendering="geometricPrecision" text-rendering="geometricPrecision" project-id="d48a8dfbd1434ffa89357f2648c1e0b1" export-id="5955676f8a764789bafdccb5960adf33" cached="false"><path d="M100,150c0-27.61424,22.38576-50,50-50s50,22.38576,50,50-22.38576,50-50,50-50-22.38576-50-50Zm65-18.91203C165,116.67998,158.28427,105,150,105s-15,11.67998-15,26.08797L135,135h-3.91203C116.67998,135,105,141.71573,105,150s11.67998,15,26.08797,15L135,165v3.91203C135,183.32002,141.71573,195,150,195s15-11.67998,15-26.08797L165,165h3.91203C183.32002,165,195,158.28427,195,150s-11.67998-15-26.08797-15L165,135v-3.91203Z" fill-rule="evenodd" stroke-width="0"/></svg>
