<svg id="e2zUMpS7K611" xmlns="http://www.w3.org/2000/svg" xmlns:xlink="http://www.w3.org/1999/xlink" viewBox="0 0 300 300" shape-rendering="geometricPrecision" text-rendering="geometricPrecision" project-id="d48a8dfbd1434ffa89357f2648c1e0b1" export-id="64e9d6606ba94bc88d8354f65adab815" cached="false"><path d="M100,150.00002c0-27.61424,22.38576-50,50-50s50,22.38576,50,50-22.38576,50-50,50-50-22.38576-50-50Zm55-36.30403C155,108.89333,152.76142,105,150,105s-5,3.89333-5,8.69599v31.30403h-31.30401c-4.80266,0-8.69599,2.23858-8.69599,5s3.89333,5,8.69599,5h31.30401v31.30399C145,191.10667,147.23858,195,150,195s5-3.89333,5-8.69599v-31.30399h31.30401c4.80266,0,8.69599-2.23858,8.69599-5s-3.89333-5-8.69599-5h-31.30401v-31.30403Z" fill-rule="evenodd" stroke-width="0"/></svg>
