<svg id="ehgW1eUvzdZ1" xmlns="http://www.w3.org/2000/svg" xmlns:xlink="http://www.w3.org/1999/xlink" viewBox="0 0 300 300" shape-rendering="geometricPrecision" text-rendering="geometricPrecision" project-id="d48a8dfbd1434ffa89357f2648c1e0b1" export-id="a9b1b8d74fbc402cb6282ecbbaf10def" cached="false"><path d="M100,150c0-27.61424,22.38576-50,50-50s50,22.38576,50,50-22.38576,50-50,50-50-22.38576-50-50Zm62-18.91203C162,116.67998,156.62742,105,150,105s-12,11.67998-12,26.08797L138,138h-6.91203C116.67998,138,105,143.37258,105,150s11.67998,12,26.08797,12L138,162v6.91203C138,183.32002,143.37258,195,150,195s12-11.67998,12-26.08797L162,162h6.91203C183.32002,162,195,156.62742,195,150s-11.67998-12-26.08797-12L162,138v-6.91203Z" fill-rule="evenodd" stroke-width="0"/></svg>
