<svg id="esT7DYGygiZ1" xmlns="http://www.w3.org/2000/svg" xmlns:xlink="http://www.w3.org/1999/xlink" viewBox="0 0 10 10" shape-rendering="geometricPrecision" text-rendering="geometricPrecision" project-id="d48a8dfbd1434ffa89357f2648c1e0b1" export-id="b42803ad3c63409799a1959126495cd8" cached="false"><path d="M0,5C0,2.23858,2.23858,0,5,0s5,2.23858,5,5-2.23858,5-5,5-5-2.23858-5-5ZM6.5,3.1088C6.5,1.668,5.82843,0.5,5,0.5s-1.5,1.168-1.5,2.6088v.3912h-.68872C1.53479,3.5,0.5,4.17157,0.5,5s1.0348,1.5,2.31128,1.5h.68872v.3912C3.5,8.332,4.17157,9.5,5,9.5s1.5-1.168,1.5-2.6088v-.3912h.68872C8.46521,6.5,9.5,5.82843,9.5,5s-1.0348-1.5-2.31128-1.5L6.5,3.5v-.3912Z" fill-rule="evenodd" stroke-width="0"/><path d="M4.9994,0.5C4.17125,0.50057,3.5,1.66835,3.5,3.1088v.3912h-.68872C1.53531,3.5,0.50083,4.17103,0.5,4.999C0.50054,2.51438,2.51473,0.50032,4.9994,0.5ZM3.5,6.8912C3.5,8.332,4.17157,9.5,5,9.5s1.5-1.168,1.5-2.6088v-.3912h.68872C8.4652,6.5,9.5,5.82843,9.5,5C9.5,7.48528,7.48528,9.5,5,9.5c-2.48495,0-4.49946-2.01418-4.5-4.499C0.50083,5.82897,1.53531,6.5,2.81128,6.5h.68872v.3912Zm3-3.7824C6.5,1.66835,5.82875,0.50057,5.0006,0.5C7.48561,0.50033,9.5,2.51492,9.5,5c0-.82843-1.0348-1.5-2.31128-1.5L6.5,3.5v-.3912Z" fill="#dc1f1f" fill-rule="evenodd" stroke-width="0"/></svg>
