<svg id="eYMp8DfT6iG1" xmlns="http://www.w3.org/2000/svg" xmlns:xlink="http://www.w3.org/1999/xlink" viewBox="0 0 300 300" shape-rendering="geometricPrecision" text-rendering="geometricPrecision" project-id="d48a8dfbd1434ffa89357f2648c1e0b1" export-id="7eeb1a40d4c84f1d9675231877183353" cached="false"><path d="M100,150c0-27.61424,22.38576-50,50-50s50,22.38576,50,50-22.38576,50-50,50-50-22.38576-50-50Zm60.5-18.91203C160.5,116.67998,155.79899,105,150,105s-10.5,11.67998-10.5,26.08797v8.41203h-16.23842C113.17599,139.5,105,144.20101,105,150s8.17599,10.5,18.26158,10.5h16.23842v8.41203C139.5,183.32002,144.20101,195,150,195s10.5-11.67998,10.5-26.08797v-8.41203h16.23842C186.82401,160.5,195,155.79899,195,150s-8.17599-10.5-18.26158-10.5h-16.23842v-8.41203Z" fill-rule="evenodd" stroke-width="0"/></svg>
