<svg id="e7OFjypVv1r1" xmlns="http://www.w3.org/2000/svg" xmlns:xlink="http://www.w3.org/1999/xlink" viewBox="0 0 300 300" shape-rendering="geometricPrecision" text-rendering="geometricPrecision" project-id="d48a8dfbd1434ffa89357f2648c1e0b1" export-id="69376eae159f495681f2984f72705a18" cached="false"><path d="M145,150c0-2.76142,2.23858-5,5-5s5,2.23858,5,5-2.23858,5-5,5-5-2.23858-5-5Zm6.5-1.8912c0-1.4408-.67157-2.6088-1.5-2.6088s-1.5,1.168-1.5,2.6088v.3912h-.38793c-1.44261,0-2.61207.67157-2.61207,1.5s1.16946,1.5,2.61207,1.5h.38793v.3912c0,1.4408.67157,2.6088,1.5,2.6088s1.5-1.168,1.5-2.6088v-.3912h.38793c1.44261,0,2.61207-.67157,2.61207-1.5s-1.16946-1.5-2.61207-1.5h-.38793v-.3912Z" fill-rule="evenodd" stroke-width="0"/></svg>
