<svg id="evLCNRgVDU61" xmlns="http://www.w3.org/2000/svg" xmlns:xlink="http://www.w3.org/1999/xlink" viewBox="0 0 10 10" shape-rendering="geometricPrecision" text-rendering="geometricPrecision" project-id="d48a8dfbd1434ffa89357f2648c1e0b1" export-id="7cdc6b49a2cb4f53a2df1254f530eae9" cached="false"><path d="M0,5C0,2.23858,2.23858,0,5,0s5,2.23858,5,5-2.23858,5-5,5-5-2.23858-5-5ZM6.5,3.1088C6.5,1.668,5.82843,0.5,5,0.5s-1.5,1.168-1.5,2.6088v.3912h-.38793C1.66946,3.5,0.5,4.17157,0.5,5s1.16946,1.5,2.61207,1.5h.38793v.3912C3.5,8.332,4.17157,9.5,5,9.5s1.5-1.168,1.5-2.6088v-.3912h.38793C8.33054,6.5,9.5,5.82843,9.5,5s-1.16946-1.5-2.61207-1.5L6.5,3.5v-.3912Z" fill-rule="evenodd" stroke-width="0"/></svg>
