<svg id="ecTJrD0m5Z81" xmlns="http://www.w3.org/2000/svg" xmlns:xlink="http://www.w3.org/1999/xlink" viewBox="0 0 15 15" shape-rendering="geometricPrecision" text-rendering="geometricPrecision" project-id="d48a8dfbd1434ffa89357f2648c1e0b1" export-id="e0f1435a76444d1ba783eab12f24da43" cached="false"><rect width="1" height="1" rx="0" ry="0" transform="matrix(3 0 0 3 10 10)" fill="#f00" stroke-width="0"/><rect width="1" height="1" rx="0" ry="0" transform="matrix(3 0 0 3 2 10)" fill="#f00" stroke-width="0"/><rect width="1" height="1" rx="0" ry="0" transform="matrix(3 0 0 3 10 2)" fill="#f00" stroke-width="0"/><rect width="5" height="1" rx="0" ry="0" transform="translate(5 14)" stroke-width="0"/><rect width="5" height="1" rx="0" ry="0" transform="translate(5 0)" stroke-width="0"/><rect width="5" height="1" rx="0" ry="0" transform="matrix(0 1-1 0 15 5)" stroke-width="0"/><rect width="5" height="1" rx="0" ry="0" transform="matrix(0 1-1 0 1 5)" stroke-width="0"/><rect width="1" height="5" rx="0" ry="0" transform="matrix(1 0 0 1.2 5.000002 9)" stroke-width="0"/><rect width="1" height="4" rx="0" ry="0" transform="matrix(1 0 0 1.500001 9 8.999998)" stroke-width="0"/><rect width="1" height="4" rx="0" ry="0" transform="matrix(1 0 0 1.25 5 0.5)" stroke-width="0"/><rect width="1" height="4" rx="0" ry="0" transform="matrix(0 1-1.250001 0 5.500002 9)" stroke-width="0"/><rect width="1" height="4" rx="0" ry="0" transform="matrix(0 1-1.25 0 14.5 5)" stroke-width="0"/><rect width="1" height="5" rx="0" ry="0" transform="matrix(1 0 0 1.2 9 0)" stroke-width="0"/><rect width="1" height="5" rx="0" ry="0" transform="matrix(0 1-1 0 14.5 9)" stroke-width="0"/><rect width="1" height="5" rx="0" ry="0" transform="matrix(0 1-1.2 0 6 5)" stroke-width="0"/><rect width="1" height="2.5" rx="0" ry="0" transform="translate(1 9.5)" stroke-width="0"/><rect width="1" height="2.5" rx="0" ry="0" transform="translate(13 9.5)" stroke-width="0"/><rect width="1" height="2.5" rx="0" ry="0" transform="translate(13 3)" stroke-width="0"/><rect width="1" height="1.666667" rx="0" ry="0" transform="matrix(1 0 0 1.5 1 3)" stroke-width="0"/><rect width="1" height="2.5" rx="0" ry="0" transform="matrix(0 1-1 0 5.5 13)" stroke-width="0"/><rect width="1" height="2.5" rx="0" ry="0" transform="matrix(0 1-1 0 12 13)" stroke-width="0"/><rect width="1" height="1.666667" rx="0" ry="0" transform="matrix(0 1-1.5 0 12 1)" stroke-width="0"/><rect width="1" height="1.666667" rx="0" ry="0" transform="matrix(0 1-1.5 0 5.5 1)" stroke-width="0"/><rect width="1" height="1" rx="0" ry="0" transform="translate(2 12)" stroke-width="0"/><rect width="1" height="1" rx="0" ry="0" transform="translate(12 12)" stroke-width="0"/><rect width="1" height="1" rx="0" ry="0" transform="translate(12 2)" stroke-width="0"/><rect width="1" height="1" rx="0" ry="0" transform="matrix(3 0 0 3 2 2)" fill="#f00" stroke-width="0"/><rect width="1" height="1" rx="0" ry="0" transform="translate(2 2)" stroke-width="0"/></svg>
